<svg xmlns="http://www.w3.org/2000/svg" version="1.1" xmlns:xlink="http://www.w3.org/1999/xlink" xmlns:svgjs="http://svgjs.dev/svgjs" width="1500" height="1500" viewBox="0 0 1500 1500"><rect width="1500" height="1500" fill="#8c1010"></rect><g transform="matrix(0.6666666666666666,0,0,0.6666666666666666,249.39393939393938,620.2336103317696)"><svg viewBox="0 0 396 102" data-background-color="#8c1010" preserveAspectRatio="xMidYMid meet" height="386" width="1500" xmlns="http://www.w3.org/2000/svg" xmlns:xlink="http://www.w3.org/1999/xlink"><g id="tight-bounds" transform="matrix(1,0,0,1,0.2400000000000091,0.4359005679773986)"><svg viewBox="0 0 395.52 101.12819886404519" height="101.12819886404519" width="395.52"><g><svg viewBox="0 0 495.33464243162337 126.64922184485215" height="101.12819886404519" width="395.52"><g transform="matrix(1,0,0,1,99.81464243162338,15.091987780963606)"><svg viewBox="0 0 395.52 96.46524628292494" height="96.46524628292494" width="395.52"><g id="textblocktransform"><svg viewBox="0 0 395.52 96.46524628292494" height="96.46524628292494" width="395.52" id="textblock"><g><svg viewBox="0 0 395.52 35.98755883309836" height="35.98755883309836" width="395.52"><g transform="matrix(1,0,0,1,0,0)"><svg width="395.52" viewBox="2.81 -40.09 450.21 40.970000000000006" height="35.98755883309836" data-palette-color="#e8c2d3"><path d="M4.71-4.27L4.71-4.27 4.71-35.72Q4.71-37.5 3.54-38.67L3.54-38.67Q3.44-38.77 3.13-38.92 2.81-39.06 2.81-39.53 2.81-39.99 3.13-39.99L3.13-39.99 11.04-39.99Q11.35-39.99 11.35-39.56 11.35-39.14 11.24-39.05 11.13-38.96 10.94-38.88 10.74-38.79 10.44-38.49 10.13-38.18 9.79-37.37 9.45-36.55 9.45-35.72L9.45-35.72 9.45-3.96 25.66-3.96Q28.42-3.96 29.25-4.59L29.25-4.59Q29.69-4.88 29.93-5.25 30.18-5.62 30.31-5.63 30.44-5.64 30.8-5.52 31.15-5.4 31.15-5.3 31.15-5.2 30.81-4.35L30.81-4.35 30.03-2.37Q29.59-1.27 29.43-0.7 29.27-0.12 29 0L29 0 3.13 0Q2.81 0 2.81-0.43 2.81-0.85 2.92-0.94 3.03-1.03 3.22-1.11 3.42-1.2 3.72-1.5 4.03-1.81 4.37-2.62 4.71-3.44 4.71-4.27ZM34.98-15.48L34.98-35.72Q34.98-37.45 33.76-38.67L33.76-38.67Q33.66-38.77 33.35-38.92 33.03-39.06 33.03-39.53 33.03-39.99 33.35-39.99L33.35-39.99 41.55-39.99Q41.87-39.99 41.87-39.56 41.87-39.14 41.76-39.05 41.65-38.96 41.45-38.88 41.26-38.79 40.95-38.49 40.65-38.18 40.31-37.37 39.96-36.55 39.96-35.72L39.96-35.72 39.96-15.48Q39.96-9.84 43.44-6.73 46.92-3.61 51.95-3.61L51.95-3.61Q54.9-3.61 57.5-5.11 60.1-6.62 61.63-9.09 63.16-11.57 63.16-14.36L63.16-14.36 63.16-35.72Q63.16-37.5 61.98-38.67L61.98-38.67Q61.89-38.77 61.57-38.92 61.25-39.06 61.25-39.53 61.25-39.99 61.57-39.99L61.57-39.99 69.19-39.99Q69.5-39.99 69.5-39.56 69.5-39.14 69.39-39.05 69.28-38.96 69.09-38.88 68.89-38.79 68.59-38.49 68.28-38.18 67.94-37.37 67.6-36.55 67.6-35.72L67.6-35.72 67.6-14.36Q67.6-10.16 65.44-6.64 63.28-3.13 59.65-1.12 56.03 0.88 51.62 0.88 47.21 0.88 43.39-1.17 39.57-3.22 37.28-6.99 34.98-10.77 34.98-15.48L34.98-15.48ZM77.66-4.27L82.08-37.7Q80.54-38.21 79.66-38.21L79.66-38.21Q78.34-38.21 77.56-38.07 76.78-37.94 76.7-38.06 76.63-38.18 76.63-38.43 76.63-38.67 76.8-38.94 76.97-39.21 77.22-39.26L77.22-39.26Q80.85-40.09 87.18-40.09L87.18-40.09 99.43-20.07 99.68-20.07 111.4-40.09Q117.72-40.09 121.36-39.26L121.36-39.26Q121.94-39.14 121.94-38.35L121.94-38.35Q121.94-37.92 121.16-38.05 120.38-38.18 119.09-38.18 117.79-38.18 116.33-37.62L116.33-37.62 120.99-4.27Q121.33-1.66 122.58-1.07L122.58-1.07Q122.9-0.93 122.9-0.46 122.9 0 122.58 0L122.58 0 114.45 0Q114.13 0 114.13-0.43 114.13-0.85 114.24-0.94 114.35-1.03 114.55-1.12L114.55-1.12Q115.18-1.39 115.66-2.55 116.13-3.71 116.13-4.14 116.13-4.57 116.11-4.71L116.11-4.71 112.18-33.72 112.06-33.72 100-12.62Q99.92-12.5 99.1-12.52 98.29-12.55 98.24-12.62L98.24-12.62 85.66-33.72 85.44-33.72 81.86-4.71Q81.73-3.93 82.17-2.87 82.61-1.81 82.91-1.51 83.2-1.22 83.52-1.07 83.83-0.93 83.83-0.46 83.83 0 83.52 0L83.52 0 76.07 0Q75.75 0 75.75-0.43 75.75-0.85 75.86-0.94 75.97-1.03 76.17-1.12L76.17-1.12Q77.31-1.61 77.66-4.27L77.66-4.27ZM129.31-39.99L129.31-39.99 137.22-39.99Q137.54-39.99 137.54-39.56 137.54-39.14 137.43-39.05 137.32-38.96 137.13-38.88 136.93-38.79 136.63-38.49 136.32-38.18 135.98-37.37 135.64-36.55 135.64-35.72L135.64-35.72 135.64-4.27Q135.64-2.49 136.81-1.32L136.81-1.32Q136.91-1.22 137.22-1.07 137.54-0.93 137.54-0.46 137.54 0 137.22 0L137.22 0 129.31 0Q129 0 129-0.43 129-0.85 129.11-0.94 129.22-1.03 129.41-1.11 129.61-1.2 129.91-1.5 130.22-1.81 130.56-2.62 130.9-3.44 130.9-4.27L130.9-4.27 130.9-35.72Q130.9-37.5 129.73-38.67L129.73-38.67Q129.63-38.77 129.31-38.92 129-39.06 129-39.53 129-39.99 129.31-39.99ZM153.99-39.99L192.91-39.99Q193.15-39.99 193.32-39.37 193.49-38.75 193.93-37.62L193.93-37.62Q193.93-37.62 194.71-35.64L194.71-35.64Q195.06-34.79 195.06-34.69 195.06-34.59 194.7-34.47 194.35-34.35 194.25-34.35L194.25-34.35Q194.08-34.35 193.82-34.7 193.57-35.06 192.94-35.55 192.32-36.04 189.56-36.04L189.56-36.04 175.82-36.04 175.82-4.27Q175.82-2.49 176.99-1.32L176.99-1.32Q177.09-1.22 177.4-1.07 177.72-0.93 177.72-0.46 177.72 0 177.4 0L177.4 0 169.49 0Q169.18 0 169.18-0.43 169.18-0.85 169.29-0.94 169.4-1.03 169.59-1.11 169.79-1.2 170.09-1.5 170.4-1.81 170.74-2.62 171.08-3.44 171.08-4.27L171.08-4.27 171.08-36.04 157.34-36.04Q153.89-36.04 153.19-34.86L153.19-34.86Q152.84-34.38 152.7-34.36 152.55-34.35 152.2-34.47 151.84-34.59 151.84-34.69 151.84-34.79 152.18-35.64L152.18-35.64 152.97-37.62Q153.41-38.72 153.56-39.29 153.72-39.87 153.99-39.99L153.99-39.99ZM204.87-23.93L220.27-23.93Q222.06-23.93 223.23-25.1L223.23-25.1Q223.32-25.2 223.47-25.51 223.62-25.83 224.08-25.83 224.55-25.83 224.55-25.51L224.55-25.51 224.55-18.43Q224.55-18.12 224.12-18.12 223.69-18.12 223.61-18.23 223.52-18.33 223.43-18.53 223.35-18.73 223.04-19.03 222.74-19.34 221.92-19.65 221.1-19.97 220.27-19.97L220.27-19.97 204.87-19.97 204.87-3.96 221.08-3.96Q223.84-3.96 224.46-4.43 225.08-4.91 225.34-5.27 225.6-5.64 225.73-5.64 225.86-5.64 226.22-5.52 226.57-5.4 226.57-5.3 226.57-5.2 226.23-4.35L226.23-4.35 225.45-2.37Q225.01-1.25 224.85-0.67 224.69-0.1 224.42 0L224.42 0 198.54 0Q198.23 0 198.23-0.43 198.23-0.85 198.34-0.94 198.45-1.03 198.64-1.11 198.84-1.2 199.14-1.5 199.45-1.81 199.79-2.62 200.13-3.44 200.13-4.27L200.13-4.27 200.13-35.72Q200.13-37.5 198.96-38.67L198.96-38.67Q198.86-38.77 198.54-38.92 198.23-39.06 198.23-39.53 198.23-39.99 198.54-39.99L198.54-39.99 224.42-39.99Q224.67-39.99 224.84-39.37 225.01-38.75 225.45-37.62L225.45-37.62 226.23-35.64Q226.57-34.79 226.57-34.69 226.57-34.59 226.22-34.47 225.86-34.35 225.75-34.35 225.64-34.35 225.52-34.48 225.4-34.62 225.24-34.85 225.08-35.08 224.46-35.56 223.84-36.04 221.08-36.04L221.08-36.04 204.87-36.04 204.87-23.93ZM233.5-4.27L237.92-37.7Q236.38-38.21 235.5-38.21L235.5-38.21Q234.19-38.21 233.41-38.07 232.62-37.94 232.55-38.06 232.48-38.18 232.48-38.43 232.48-38.67 232.65-38.94 232.82-39.21 233.06-39.26L233.06-39.26Q236.7-40.09 243.02-40.09L243.02-40.09 255.28-20.07 255.52-20.07 267.24-40.09Q273.57-40.09 277.2-39.26L277.2-39.26Q277.79-39.14 277.79-38.35L277.79-38.35Q277.79-37.92 277.01-38.05 276.23-38.18 274.93-38.18 273.64-38.18 272.17-37.62L272.17-37.62 276.84-4.27Q277.18-1.66 278.42-1.07L278.42-1.07Q278.74-0.93 278.74-0.46 278.74 0 278.42 0L278.42 0 270.3 0Q269.98 0 269.98-0.43 269.98-0.85 270.09-0.94 270.2-1.03 270.39-1.12L270.39-1.12Q271.03-1.39 271.5-2.55 271.98-3.71 271.98-4.14 271.98-4.57 271.96-4.71L271.96-4.71 268.02-33.72 267.9-33.72 255.84-12.62Q255.77-12.5 254.95-12.52 254.13-12.55 254.08-12.62L254.08-12.62 241.51-33.72 241.29-33.72 237.7-4.71Q237.58-3.93 238.02-2.87 238.46-1.81 238.75-1.51 239.05-1.22 239.36-1.07 239.68-0.93 239.68-0.46 239.68 0 239.36 0L239.36 0 231.92 0Q231.6 0 231.6-0.43 231.6-0.85 231.71-0.94 231.82-1.03 232.01-1.12L232.01-1.12Q233.16-1.61 233.5-4.27L233.5-4.27ZM291.48-34.77L291.48-34.77 291.48-4.27Q291.48-2.49 292.66-1.32L292.66-1.32Q292.75-1.22 293.07-1.07 293.39-0.93 293.39-0.46 293.39 0 293.07 0L293.07 0 285.16 0Q284.84 0 284.84-0.43 284.84-0.85 284.95-0.94 285.06-1.03 285.26-1.11 285.45-1.2 285.76-1.5 286.06-1.81 286.41-2.62 286.75-3.44 286.75-4.27L286.75-4.27 286.75-35.72Q286.75-37.5 285.58-38.67L285.58-38.67Q285.48-38.77 285.16-38.92 284.84-39.06 284.84-39.53 284.84-39.99 285.16-39.99L285.16-39.99 298.49-39.99Q301.79-39.99 304.63-38.71 307.48-37.43 309.26-34.92 311.04-32.42 311.04-28.96 311.04-25.49 309.43-23.14L309.43-23.14Q306.25-18.6 296.32-18.63L296.32-18.63 293.05-18.63Q292.73-18.63 292.73-19.31L292.73-19.31 292.73-21.36Q292.73-22.05 293.05-22.05L293.05-22.05 296.32-22.05Q306.4-22.05 306.4-29.2L306.4-29.2Q306.4-31.81 304.89-33.28L304.89-33.28Q302.4-35.69 298.59-36.04L298.59-36.04 292.97-36.04Q292.44-36.04 291.96-35.61 291.48-35.18 291.48-34.77ZM317.41-4.27L317.41-4.27 317.41-35.72Q317.41-37.5 316.24-38.67L316.24-38.67Q316.14-38.77 315.82-38.92 315.5-39.06 315.5-39.53 315.5-39.99 315.82-39.99L315.82-39.99 323.73-39.99Q324.05-39.99 324.05-39.56 324.05-39.14 323.94-39.05 323.83-38.96 323.63-38.88 323.44-38.79 323.13-38.49 322.83-38.18 322.49-37.37 322.15-36.55 322.15-35.72L322.15-35.72 322.15-3.96 338.36-3.96Q341.12-3.96 341.95-4.59L341.95-4.59Q342.38-4.88 342.63-5.25 342.87-5.62 343.01-5.63 343.14-5.64 343.5-5.52 343.85-5.4 343.85-5.3 343.85-5.2 343.51-4.35L343.51-4.35 342.73-2.37Q342.29-1.27 342.13-0.7 341.97-0.12 341.7 0L341.7 0 315.82 0Q315.5 0 315.5-0.43 315.5-0.85 315.61-0.94 315.72-1.03 315.92-1.11 316.12-1.2 316.42-1.5 316.73-1.81 317.07-2.62 317.41-3.44 317.41-4.27ZM347.27-3.74L347.27-3.74Q347.27-3.74 363.33-39.7L363.33-39.7Q363.45-39.99 364.53-39.99 365.6-39.99 365.75-39.7L365.75-39.7 382.3-3.74Q383.25-1.51 384.18-1.07L384.18-1.07Q384.5-0.93 384.5-0.46 384.5 0 384.18 0L384.18 0 375.34 0Q375.02 0 375.02-0.43 375.02-0.85 375.13-0.94 375.24-1.03 375.44-1.11 375.63-1.2 375.76-1.32L375.76-1.32Q376.68-2.25 376.68-3.04 376.68-3.83 376.51-4.35L376.51-4.35 372.97-12.72 355.37-12.72 351.9-4.35Q351.73-3.83 351.73-3.56L351.73-3.56 351.73-3.3Q351.73-3.27 351.73-3.25L351.73-3.25Q351.73-2.25 352.66-1.32L352.66-1.32Q352.76-1.22 353.08-1.07 353.39-0.93 353.39-0.46 353.39 0 353.08 0L353.08 0 345.39 0Q345.07 0 345.07-0.43 345.07-0.85 345.18-0.94 345.29-1.03 345.48-1.12L345.48-1.12Q346.29-1.46 347.27-3.74ZM363.96-31.93L357.1-16.6Q357.06-16.53 357.08-16.42 357.1-16.31 357.18-16.31L357.18-16.31 371.12-16.31Q371.19-16.31 371.22-16.42 371.24-16.53 371.19-16.6L371.19-16.6 364.14-31.93 363.96-31.93ZM380.44-39.99L419.36-39.99Q419.6-39.99 419.77-39.37 419.94-38.75 420.38-37.62L420.38-37.62Q420.38-37.62 421.16-35.64L421.16-35.64Q421.51-34.79 421.51-34.69 421.51-34.59 421.15-34.47 420.8-34.35 420.7-34.35L420.7-34.35Q420.53-34.35 420.27-34.7 420.02-35.06 419.39-35.55 418.77-36.04 416.01-36.04L416.01-36.04 402.27-36.04 402.27-4.27Q402.27-2.49 403.44-1.32L403.44-1.32Q403.54-1.22 403.85-1.07 404.17-0.93 404.17-0.46 404.17 0 403.85 0L403.85 0 395.94 0Q395.63 0 395.63-0.43 395.63-0.85 395.74-0.94 395.85-1.03 396.04-1.11 396.24-1.2 396.54-1.5 396.85-1.81 397.19-2.62 397.53-3.44 397.53-4.27L397.53-4.27 397.53-36.04 383.79-36.04Q380.34-36.04 379.64-34.86L379.64-34.86Q379.29-34.38 379.15-34.36 379-34.35 378.65-34.47 378.29-34.59 378.29-34.69 378.29-34.79 378.63-35.64L378.63-35.64 379.42-37.62Q379.86-38.72 380.01-39.29 380.17-39.87 380.44-39.99L380.44-39.99ZM431.32-23.93L446.72-23.93Q448.51-23.93 449.68-25.1L449.68-25.1Q449.77-25.2 449.92-25.51 450.07-25.83 450.53-25.83 451-25.83 451-25.51L451-25.51 451-18.43Q451-18.12 450.57-18.12 450.14-18.12 450.06-18.23 449.97-18.33 449.88-18.53 449.8-18.73 449.49-19.03 449.19-19.34 448.37-19.65 447.55-19.97 446.72-19.97L446.72-19.97 431.32-19.97 431.32-3.96 447.53-3.96Q450.29-3.96 450.91-4.43 451.53-4.91 451.79-5.27 452.05-5.64 452.18-5.64 452.31-5.64 452.67-5.52 453.02-5.4 453.02-5.3 453.02-5.2 452.68-4.35L452.68-4.35 451.9-2.37Q451.46-1.25 451.3-0.67 451.14-0.1 450.87 0L450.87 0 424.99 0Q424.68 0 424.68-0.43 424.68-0.85 424.79-0.94 424.9-1.03 425.09-1.11 425.29-1.2 425.59-1.5 425.9-1.81 426.24-2.62 426.58-3.44 426.58-4.27L426.58-4.27 426.58-35.72Q426.58-37.5 425.41-38.67L425.41-38.67Q425.31-38.77 424.99-38.92 424.68-39.06 424.68-39.53 424.68-39.99 424.99-39.99L424.99-39.99 450.87-39.99Q451.12-39.99 451.29-39.37 451.46-38.75 451.9-37.62L451.9-37.62 452.68-35.64Q453.02-34.79 453.02-34.69 453.02-34.59 452.67-34.47 452.31-34.35 452.2-34.35 452.09-34.35 451.97-34.48 451.85-34.62 451.69-34.85 451.53-35.08 450.91-35.56 450.29-36.04 447.53-36.04L447.53-36.04 431.32-36.04 431.32-23.93Z" opacity="1" transform="matrix(1,0,0,1,0,0)" fill="#e8c2d3" class="wordmark-text-0" data-fill-palette-color="primary" id="text-0"></path></svg></g></svg></g><g transform="matrix(1,0,0,1,0,52.97915671126342)"><svg viewBox="0 0 395.52 43.48608957166152" height="43.48608957166152" width="395.52"><path d="M395.52 0l-7.248 21.743 7.248 21.743h-395.52l7.248-21.743-7.248-21.743z" data-fill-palette-color="tertiary" opacity="1" fill="#e8c2d3"></path><g transform="matrix(1,0,0,1,75.54432,8.49579893908253)"><svg width="244.43135999999998" viewBox="1.75 -39.65 465.84 50.5" height="26.494491693496464" data-palette-color="#8c1010"><path d="M14.5-35.25Q17.15-35.25 19.18-34.38 21.2-33.5 23.1-31.7L23.1-31.7 20.05-28.05Q18.75-29.25 17.53-29.83 16.3-30.4 14.85-30.4L14.85-30.4Q11.85-30.4 10.15-27.4 8.45-24.4 8.45-17.35L8.45-17.35Q8.45-10.4 10.15-7.38 11.85-4.35 14.95-4.35L14.95-4.35Q16.5-4.35 17.65-4.98 18.8-5.6 20.35-6.9L20.35-6.9 23.4-3.4Q21.8-1.6 19.55-0.43 17.3 0.75 14.5 0.75L14.5 0.75Q8.65 0.75 5.2-3.8 1.75-8.35 1.75-17.35L1.75-17.35Q1.75-23.3 3.4-27.3 5.05-31.3 7.93-33.27 10.8-35.25 14.5-35.25L14.5-35.25ZM38.3-27.1Q39.45-27.1 40.35-26.75L40.35-26.75 39.35-20.85Q38.35-21.1 37.5-21.1L37.5-21.1Q35.6-21.1 34.5-19.45 33.4-17.8 32.8-14.55L32.8-14.55 32.8 0 26.65 0 26.65-26.45 32-26.45 32.45-21.85Q34.3-27.1 38.3-27.1L38.3-27.1ZM60.09-6.4Q60.09-5.1 60.45-4.48 60.8-3.85 61.59-3.45L61.59-3.45 60.34 0.65Q58.3 0.4 57.07-0.45 55.84-1.3 55.24-3.05L55.24-3.05Q52.95 0.75 48.8 0.75L48.8 0.75Q45.49 0.75 43.55-1.48 41.59-3.7 41.59-7.4L41.59-7.4Q41.59-11.7 44.27-13.95 46.95-16.2 52.05-16.2L52.05-16.2 54.09-16.2 54.09-18.05Q54.09-20.55 53.22-21.58 52.34-22.6 50.39-22.6L50.39-22.6Q48.05-22.6 44.55-21.3L44.55-21.3 43.14-25.3Q45.14-26.2 47.3-26.68 49.45-27.15 51.39-27.15L51.39-27.15Q60.09-27.15 60.09-18.35L60.09-18.35 60.09-6.4ZM50.45-3.7Q52.84-3.7 54.09-7L54.09-7 54.09-12.55 52.64-12.55Q50.09-12.55 48.92-11.4 47.74-10.25 47.74-7.85L47.74-7.85Q47.74-5.8 48.45-4.75 49.14-3.7 50.45-3.7L50.45-3.7ZM75.59-33.05Q74.19-33.05 73.52-32.3 72.84-31.55 72.84-30L72.84-30 72.84-26.45 77.89-26.45 77.19-22 72.84-22 72.84 0 66.69 0 66.69-22 63.39-22 63.39-26.45 66.69-26.45 66.69-29.8Q66.69-33.4 68.79-35.55 70.89-37.7 74.79-37.7L74.79-37.7Q77.84-37.7 80.69-36.2L80.69-36.2 78.99-32.2Q77.24-33.05 75.59-33.05L75.59-33.05ZM91.84-5L93.99-1.2Q91.54 0.75 88.24 0.75L88.24 0.75Q84.79 0.75 82.99-1.23 81.19-3.2 81.19-6.6L81.19-6.6 81.19-22 78.09-22 78.09-26.45 81.19-26.45 81.19-32.3 87.34-33.05 87.34-26.45 92.34-26.45 91.74-22 87.34-22 87.34-6.6Q87.34-4.2 89.39-4.2L89.39-4.2Q90.04-4.2 90.54-4.38 91.04-4.55 91.84-5L91.84-5ZM96.54-26.45L102.69-26.45 102.69 0 96.54 0 96.54-26.45ZM99.59-39.65Q101.24-39.65 102.26-38.6 103.29-37.55 103.29-35.9L103.29-35.9Q103.29-34.3 102.26-33.25 101.24-32.2 99.59-32.2L99.59-32.2Q97.94-32.2 96.91-33.25 95.89-34.3 95.89-35.9L95.89-35.9Q95.89-37.55 96.91-38.6 97.94-39.65 99.59-39.65L99.59-39.65ZM120.73-27.15Q123.58-27.15 125.23-25.1 126.88-23.05 126.88-19.6L126.88-19.6 126.88 0 120.73 0 120.73-18.9Q120.73-20.8 120.21-21.63 119.69-22.45 118.69-22.45L118.69-22.45Q116.58-22.45 114.53-18.5L114.53-18.5 114.53 0 108.38 0 108.38-26.45 113.73-26.45 114.19-23Q115.53-25.1 117.06-26.13 118.58-27.15 120.73-27.15L120.73-27.15ZM150.38-29.85L151.93-25.1Q150.88-24.6 149.41-24.4 147.93-24.2 145.73-24.2L145.73-24.2Q147.83-23.2 148.86-21.53 149.88-19.85 149.88-17.4L149.88-17.4Q149.88-13.4 147.43-10.95 144.98-8.5 140.78-8.5L140.78-8.5Q139.53-8.5 138.23-8.9L138.23-8.9Q137.33-8.15 137.33-6.85L137.33-6.85Q137.33-5.85 137.88-5.35 138.43-4.85 139.93-4.85L139.93-4.85 142.73-4.85Q146.73-4.85 149.08-2.78 151.43-0.7 151.43 2.5L151.43 2.5Q151.43 6.3 148.51 8.58 145.58 10.85 140.18 10.85L140.18 10.85Q134.48 10.85 132.21 8.75 129.93 6.65 129.93 2.6L129.93 2.6 135.38 2.6Q135.38 4.75 136.38 5.65 137.38 6.55 140.23 6.55L140.23 6.55Q142.98 6.55 144.13 5.6 145.28 4.65 145.28 2.9L145.28 2.9Q145.28 1.2 144.33 0.4 143.38-0.4 141.38-0.4L141.38-0.4 139.48-0.4Q135.68-0.4 133.93-1.75 132.18-3.1 132.18-5.45L132.18-5.45Q132.18-6.8 132.91-8.03 133.63-9.25 134.88-10.2L134.88-10.2Q132.83-11.5 131.88-13.3 130.93-15.1 130.93-17.7L130.93-17.7Q130.93-22.05 133.53-24.58 136.13-27.1 140.53-27.1L140.53-27.1Q143.78-27.1 145.91-27.8 148.03-28.5 150.38-29.85L150.38-29.85ZM140.53-23Q138.78-23 137.88-21.75 136.98-20.5 136.98-17.8L136.98-17.8Q136.98-15.25 137.88-13.88 138.78-12.5 140.48-12.5L140.48-12.5Q142.23-12.5 143.08-13.73 143.93-14.95 143.93-17.85L143.93-17.85Q143.93-20.55 143.11-21.78 142.28-23 140.53-23L140.53-23ZM176.18-35.25Q178.83-35.25 180.85-34.38 182.88-33.5 184.78-31.7L184.78-31.7 181.73-28.05Q180.43-29.25 179.2-29.83 177.98-30.4 176.53-30.4L176.53-30.4Q173.53-30.4 171.83-27.4 170.13-24.4 170.13-17.35L170.13-17.35Q170.13-10.4 171.83-7.38 173.53-4.35 176.63-4.35L176.63-4.35Q178.18-4.35 179.33-4.98 180.48-5.6 182.03-6.9L182.03-6.9 185.08-3.4Q183.48-1.6 181.23-0.43 178.98 0.75 176.18 0.75L176.18 0.75Q170.33 0.75 166.88-3.8 163.43-8.35 163.43-17.35L163.43-17.35Q163.43-23.3 165.08-27.3 166.73-31.3 169.6-33.27 172.48-35.25 176.18-35.25L176.18-35.25ZM193.93 0.75Q191.23 0.75 189.65-0.93 188.08-2.6 188.08-5.4L188.08-5.4 188.08-37.05 194.23-37.7 194.23-5.65Q194.23-5 194.53-4.6 194.83-4.2 195.43-4.2L195.43-4.2Q195.78-4.2 196.1-4.3 196.43-4.4 196.53-4.4L196.53-4.4 197.73-0.2Q196.03 0.75 193.93 0.75L193.93 0.75ZM217.67-6.4Q217.67-5.1 218.02-4.48 218.37-3.85 219.17-3.45L219.17-3.45 217.92 0.65Q215.87 0.4 214.65-0.45 213.42-1.3 212.82-3.05L212.82-3.05Q210.52 0.75 206.37 0.75L206.37 0.75Q203.07 0.75 201.12-1.48 199.17-3.7 199.17-7.4L199.17-7.4Q199.17-11.7 201.85-13.95 204.52-16.2 209.62-16.2L209.62-16.2 211.67-16.2 211.67-18.05Q211.67-20.55 210.8-21.58 209.92-22.6 207.97-22.6L207.97-22.6Q205.62-22.6 202.12-21.3L202.12-21.3 200.72-25.3Q202.72-26.2 204.87-26.68 207.02-27.15 208.97-27.15L208.97-27.15Q217.67-27.15 217.67-18.35L217.67-18.35 217.67-6.4ZM208.02-3.7Q210.42-3.7 211.67-7L211.67-7 211.67-12.55 210.22-12.55Q207.67-12.55 206.5-11.4 205.32-10.25 205.32-7.85L205.32-7.85Q205.32-5.8 206.02-4.75 206.72-3.7 208.02-3.7L208.02-3.7ZM235.12-27.1Q236.27-27.1 237.17-26.75L237.17-26.75 236.17-20.85Q235.17-21.1 234.32-21.1L234.32-21.1Q232.42-21.1 231.32-19.45 230.22-17.8 229.62-14.55L229.62-14.55 229.62 0 223.47 0 223.47-26.45 228.82-26.45 229.27-21.85Q231.12-27.1 235.12-27.1L235.12-27.1ZM240.02-26.45L246.17-26.45 246.17 0 240.02 0 240.02-26.45ZM243.07-39.65Q244.72-39.65 245.74-38.6 246.77-37.55 246.77-35.9L246.77-35.9Q246.77-34.3 245.74-33.25 244.72-32.2 243.07-32.2L243.07-32.2Q241.42-32.2 240.39-33.25 239.37-34.3 239.37-35.9L239.37-35.9Q239.37-37.55 240.39-38.6 241.42-39.65 243.07-39.65L243.07-39.65ZM263.01-5L265.17-1.2Q262.72 0.75 259.42 0.75L259.42 0.75Q255.97 0.75 254.17-1.23 252.37-3.2 252.37-6.6L252.37-6.6 252.37-22 249.27-22 249.27-26.45 252.37-26.45 252.37-32.3 258.51-33.05 258.51-26.45 263.51-26.45 262.92-22 258.51-22 258.51-6.6Q258.51-4.2 260.56-4.2L260.56-4.2Q261.22-4.2 261.72-4.38 262.22-4.55 263.01-5L263.01-5ZM286.36-26.45L279.36 0.1Q278.06 4.9 275.16 7.65 272.26 10.4 267.41 10.85L267.41 10.85 266.71 6.5Q269.86 5.85 271.44 4.42 273.01 3 273.91 0L273.91 0 271.61 0 264.91-26.45 271.16-26.45 275.56-4.1 280.26-26.45 286.36-26.45ZM299.11-26.45L305.26-26.45 305.26 0 299.11 0 299.11-26.45ZM302.16-39.65Q303.81-39.65 304.83-38.6 305.86-37.55 305.86-35.9L305.86-35.9Q305.86-34.3 304.83-33.25 303.81-32.2 302.16-32.2L302.16-32.2Q300.51-32.2 299.48-33.25 298.46-34.3 298.46-35.9L298.46-35.9Q298.46-37.55 299.48-38.6 300.51-39.65 302.16-39.65L302.16-39.65ZM323.31-27.15Q326.16-27.15 327.81-25.1 329.46-23.05 329.46-19.6L329.46-19.6 329.46 0 323.31 0 323.31-18.9Q323.31-20.8 322.78-21.63 322.26-22.45 321.26-22.45L321.26-22.45Q319.16-22.45 317.11-18.5L317.11-18.5 317.11 0 310.96 0 310.96-26.45 316.31-26.45 316.76-23Q318.11-25.1 319.63-26.13 321.16-27.15 323.31-27.15L323.31-27.15ZM352.7-34.55Q357.05-34.55 360.23-33.23 363.4-31.9 365.38-28.13 367.35-24.35 367.35-17.45L367.35-17.45Q367.35-7.7 363.48-3.85 359.6 0 353.35 0L353.35 0 345 0 345-34.55 352.7-34.55ZM353.65-29.8L351.35-29.8 351.35-4.75 353.7-4.75Q355.95-4.75 357.48-5.8 359-6.85 359.88-9.65 360.75-12.45 360.75-17.45L360.75-17.45Q360.75-22.55 359.83-25.25 358.9-27.95 357.38-28.88 355.85-29.8 353.65-29.8L353.65-29.8ZM390.8-13.85Q390.8-13.4 390.65-11.3L390.65-11.3 377-11.3Q377.2-7.2 378.42-5.58 379.65-3.95 381.9-3.95L381.9-3.95Q383.45-3.95 384.7-4.48 385.95-5 387.4-6.15L387.4-6.15 389.95-2.65Q386.45 0.75 381.55 0.75L381.55 0.75Q376.35 0.75 373.57-2.85 370.8-6.45 370.8-13L370.8-13Q370.8-19.55 373.45-23.35 376.1-27.15 380.95-27.15L380.95-27.15Q385.6-27.15 388.2-23.78 390.8-20.4 390.8-13.85L390.8-13.85ZM384.8-15.3L384.8-15.65Q384.8-19.4 383.9-21.13 383-22.85 381-22.85L381-22.85Q379.15-22.85 378.17-21.18 377.2-19.5 377-15.3L377-15.3 384.8-15.3ZM402.45-27.15Q407.15-27.15 410.4-24.05L410.4-24.05 408.05-20.7Q406.65-21.7 405.4-22.2 404.15-22.7 402.85-22.7L402.85-22.7Q401.4-22.7 400.57-21.93 399.75-21.15 399.75-19.8L399.75-19.8Q399.75-18.45 400.67-17.63 401.6-16.8 404.4-15.7L404.4-15.7Q407.85-14.35 409.5-12.5 411.15-10.65 411.15-7.55L411.15-7.55Q411.15-3.7 408.45-1.48 405.75 0.75 401.6 0.75L401.6 0.75Q398.9 0.75 396.62-0.23 394.35-1.2 392.65-2.95L392.65-2.95 395.65-6.25Q398.45-3.8 401.35-3.8L401.35-3.8Q403-3.8 403.95-4.67 404.9-5.55 404.9-7.1L404.9-7.1Q404.9-8.25 404.5-8.97 404.1-9.7 403.1-10.33 402.1-10.95 400.1-11.7L400.1-11.7Q396.65-13.05 395.17-14.85 393.7-16.65 393.7-19.45L393.7-19.45Q393.7-22.8 396.07-24.98 398.45-27.15 402.45-27.15L402.45-27.15ZM414.99-26.45L421.14-26.45 421.14 0 414.99 0 414.99-26.45ZM418.04-39.65Q419.69-39.65 420.72-38.6 421.74-37.55 421.74-35.9L421.74-35.9Q421.74-34.3 420.72-33.25 419.69-32.2 418.04-32.2L418.04-32.2Q416.39-32.2 415.37-33.25 414.34-34.3 414.34-35.9L414.34-35.9Q414.34-37.55 415.37-38.6 416.39-39.65 418.04-39.65L418.04-39.65ZM444.79-29.85L446.34-25.1Q445.29-24.6 443.82-24.4 442.34-24.2 440.14-24.2L440.14-24.2Q442.24-23.2 443.27-21.53 444.29-19.85 444.29-17.4L444.29-17.4Q444.29-13.4 441.84-10.95 439.39-8.5 435.19-8.5L435.19-8.5Q433.94-8.5 432.64-8.9L432.64-8.9Q431.74-8.15 431.74-6.85L431.74-6.85Q431.74-5.85 432.29-5.35 432.84-4.85 434.34-4.85L434.34-4.85 437.14-4.85Q441.14-4.85 443.49-2.78 445.84-0.7 445.84 2.5L445.84 2.5Q445.84 6.3 442.92 8.58 439.99 10.85 434.59 10.85L434.59 10.85Q428.89 10.85 426.62 8.75 424.34 6.65 424.34 2.6L424.34 2.6 429.79 2.6Q429.79 4.75 430.79 5.65 431.79 6.55 434.64 6.55L434.64 6.55Q437.39 6.55 438.54 5.6 439.69 4.65 439.69 2.9L439.69 2.9Q439.69 1.2 438.74 0.4 437.79-0.4 435.79-0.4L435.79-0.4 433.89-0.4Q430.09-0.4 428.34-1.75 426.59-3.1 426.59-5.45L426.59-5.45Q426.59-6.8 427.32-8.03 428.04-9.25 429.29-10.2L429.29-10.2Q427.24-11.5 426.29-13.3 425.34-15.1 425.34-17.7L425.34-17.7Q425.34-22.05 427.94-24.58 430.54-27.1 434.94-27.1L434.94-27.1Q438.19-27.1 440.32-27.8 442.44-28.5 444.79-29.85L444.79-29.85ZM434.94-23Q433.19-23 432.29-21.75 431.39-20.5 431.39-17.8L431.39-17.8Q431.39-15.25 432.29-13.88 433.19-12.5 434.89-12.5L434.89-12.5Q436.64-12.5 437.49-13.73 438.34-14.95 438.34-17.85L438.34-17.85Q438.34-20.55 437.52-21.78 436.69-23 434.94-23L434.94-23ZM461.44-27.15Q464.29-27.15 465.94-25.1 467.59-23.05 467.59-19.6L467.59-19.6 467.59 0 461.44 0 461.44-18.9Q461.44-20.8 460.91-21.63 460.39-22.45 459.39-22.45L459.39-22.45Q457.29-22.45 455.24-18.5L455.24-18.5 455.24 0 449.09 0 449.09-26.45 454.44-26.45 454.89-23Q456.24-25.1 457.76-26.13 459.29-27.15 461.44-27.15L461.44-27.15Z" opacity="1" transform="matrix(1,0,0,1,0,0)" fill="#8c1010" class="slogan-text-1" data-fill-palette-color="quaternary" id="text-1"></path></svg></g></svg></g></svg></g></svg></g><g><svg viewBox="0 0 91.31884349254085 126.64922184485215" height="126.64922184485215" width="91.31884349254085"><g><svg xmlns="http://www.w3.org/2000/svg" xmlns:xlink="http://www.w3.org/1999/xlink" version="1.1" x="0" y="0" viewBox="17.553310653591126 5 64.89337869281775 90" enable-background="new 0 0 100 100" xml:space="preserve" height="126.64922184485215" width="91.31884349254085" class="icon-icon-0" data-fill-palette-color="accent" id="icon-0"><path d="M50 5C45.6 5 41.3 6.2 37.3 8.6 21.1 18.1 13.3 44.3 19.9 67 24.9 84 36.7 95 50 95 54.4 95 58.7 93.8 62.7 91.4 78.9 81.9 86.7 55.7 80.1 33 75.1 16 63.3 5 50 5M75.8 63.7L64.3 57 77.4 52.3C77.3 56.2 76.8 60 75.8 63.7M24.2 36.3L35.7 43 22.6 47.7C22.7 43.8 23.2 40 24.2 36.3M52.5 50L61.6 44.7 76.3 50 61.5 55.3zM38.5 55.3L23.7 50 38.5 44.7 47.6 50zM75.1 33.8L64 40.3 70.9 24C72.6 26.9 74 30.2 75.1 33.8M60.4 42.4L52.1 47.3 55.8 34.5 68 24.2zM50 45.5L46.6 33.7 50 14.6 53.4 33.8zM51.7 10.1C54.4 10.4 57.1 11.2 59.6 12.6L55 28.4zM45 28.4L40.4 12.6C43 11.2 45.6 10.4 48.3 10.1zM47.9 47.3L39.6 42.4 32 24.2 44.2 34.5zM29.1 24L36 40.3 24.9 33.8C25.9 30.3 27.4 27 29.1 24M22.5 52.2L35.7 57 24.2 63.7C23.2 59.9 22.7 56.1 22.5 52.2M36 59.7L29.1 76C27.4 73.1 26 69.8 24.9 66.2zM39.6 57.6L47.9 52.7 44.2 65.5 31.9 75.8zM50 54.5L53.4 66.3 50 85.4 46.6 66.2zM48.3 89.9C45.6 89.6 42.9 88.8 40.4 87.4L45 71.6zM55 71.6L59.6 87.4C57 88.8 54.4 89.6 51.7 89.9zM52.1 52.7L60.4 57.6 68 75.8 55.8 65.5zM70.9 76L64 59.7 75.1 66.2C74.1 69.7 72.6 73 70.9 76M64.3 43L75.8 36.3C76.8 40.1 77.3 43.9 77.4 47.8zM68.6 20.5L57.1 30.2 61.9 13.9C64.3 15.6 66.6 17.9 68.6 20.5M38.2 13.9L43 30.2 31.5 20.5C33.4 17.9 35.6 15.7 38.2 13.9M31.4 79.5L42.9 69.8 38.1 86.1C35.7 84.4 33.4 82.1 31.4 79.5M61.8 86.1L57 69.8 68.5 79.5C66.6 82.1 64.4 84.3 61.8 86.1" fill="#e8c2d3" data-fill-palette-color="accent"></path></svg></g></svg></g></svg></g><defs></defs></svg><rect width="395.52" height="101.12819886404519" fill="none" stroke="none" visibility="hidden"></rect></g></svg></g></svg>